<svg width="162" height="162" viewBox="0 0 162 162" fill="none" xmlns="http://www.w3.org/2000/svg">
<path d="M81 5C81 2.23858 83.2412 -0.0160857 85.9974 0.154189C105.034 1.33027 123.108 9.19644 136.972 22.4501C152.045 36.859 160.98 56.5253 161.918 77.3559C162.856 98.1864 155.725 118.576 142.009 134.282C129.392 148.728 112.098 158.187 93.2442 161.069C90.5145 161.487 88.0797 159.443 87.8315 156.692L86.9101 146.484C86.6619 143.734 88.6963 141.324 91.4168 140.85C105.077 138.473 117.57 131.48 126.757 120.961C137.044 109.182 142.392 93.8898 141.688 78.2669C140.985 62.644 134.284 47.8942 122.979 37.0876C112.884 27.4371 99.8133 21.5951 85.9948 20.4555C83.2427 20.2286 81 18.0114 81 15.25V5Z" fill="#187586"/>
<path d="M74.7809 5.25488C74.5549 2.50271 72.1371 0.438991 69.4041 0.834289C55.0642 2.9084 41.5098 8.7973 30.1799 17.9261C18.8499 27.0549 10.2125 39.0465 5.13559 52.6169C4.168 55.2033 5.67016 58.0048 8.31128 58.8111L18.1147 61.8036C20.7558 62.6099 23.5311 61.1124 24.5517 58.5465C28.4095 48.8479 34.7134 40.2785 42.8849 33.6946C51.0563 27.1107 60.7706 22.7738 71.0678 21.0674C73.7921 20.6159 75.8456 18.2227 75.6197 15.4705L74.7809 5.25488Z" fill="#FFAB00"/>
<path d="M81 157C81 159.761 78.7592 162.016 76.0031 161.846C65.7132 161.21 55.6233 158.614 46.2812 154.182C35.4309 149.034 25.861 141.539 18.2644 132.237C10.6678 122.936 5.23448 112.061 2.35792 100.402C-0.118809 90.3625 -0.646824 79.9574 0.785336 69.7479C1.16894 67.0133 3.82574 65.268 6.53151 65.8196L16.575 67.8669C19.2807 68.4185 21.0054 71.0585 20.6781 73.8005C19.8118 81.0587 20.261 88.4278 22.0184 95.5512C24.1759 104.296 28.2508 112.452 33.9483 119.428C39.6458 126.404 46.8232 132.026 54.9609 135.887C61.5897 139.031 68.7207 140.943 76.0056 141.544C78.7577 141.771 81 143.989 81 146.75L81 157Z" fill="#36B37E"/>
<path d="M71.1426 65.4688V74H70.0293V65.4688H71.1426ZM73.8848 65.4688V66.3945H67.293V65.4688H73.8848ZM74.1133 70.9004V70.7656C74.1133 70.3086 74.1797 69.8848 74.3125 69.4941C74.4453 69.0996 74.6367 68.7578 74.8867 68.4688C75.1367 68.1758 75.4395 67.9492 75.7949 67.7891C76.1504 67.625 76.5488 67.543 76.9902 67.543C77.4355 67.543 77.8359 67.625 78.1914 67.7891C78.5508 67.9492 78.8555 68.1758 79.1055 68.4688C79.3594 68.7578 79.5527 69.0996 79.6855 69.4941C79.8184 69.8848 79.8848 70.3086 79.8848 70.7656V70.9004C79.8848 71.3574 79.8184 71.7812 79.6855 72.1719C79.5527 72.5625 79.3594 72.9043 79.1055 73.1973C78.8555 73.4863 78.5527 73.7129 78.1973 73.877C77.8457 74.0371 77.4473 74.1172 77.002 74.1172C76.5566 74.1172 76.1562 74.0371 75.8008 73.877C75.4453 73.7129 75.1406 73.4863 74.8867 73.1973C74.6367 72.9043 74.4453 72.5625 74.3125 72.1719C74.1797 71.7812 74.1133 71.3574 74.1133 70.9004ZM75.1973 70.7656V70.9004C75.1973 71.2168 75.2344 71.5156 75.3086 71.7969C75.3828 72.0742 75.4941 72.3203 75.6426 72.5352C75.7949 72.75 75.9844 72.9199 76.2109 73.0449C76.4375 73.166 76.7012 73.2266 77.002 73.2266C77.2988 73.2266 77.5586 73.166 77.7812 73.0449C78.0078 72.9199 78.1953 72.75 78.3438 72.5352C78.4922 72.3203 78.6035 72.0742 78.6777 71.7969C78.7559 71.5156 78.7949 71.2168 78.7949 70.9004V70.7656C78.7949 70.4531 78.7559 70.1582 78.6777 69.8809C78.6035 69.5996 78.4902 69.3516 78.3379 69.1367C78.1895 68.918 78.002 68.7461 77.7754 68.6211C77.5527 68.4961 77.291 68.4336 76.9902 68.4336C76.6934 68.4336 76.4316 68.4961 76.2051 68.6211C75.9824 68.7461 75.7949 68.918 75.6426 69.1367C75.4941 69.3516 75.3828 69.5996 75.3086 69.8809C75.2344 70.1582 75.1973 70.4531 75.1973 70.7656ZM83.8984 67.6602V68.4922H80.4707V67.6602H83.8984ZM81.6309 66.1191H82.7148V72.4297C82.7148 72.6445 82.748 72.8066 82.8145 72.916C82.8809 73.0254 82.9668 73.0977 83.0723 73.1328C83.1777 73.168 83.291 73.1855 83.4121 73.1855C83.502 73.1855 83.5957 73.1777 83.6934 73.1621C83.7949 73.1426 83.8711 73.127 83.9219 73.1152L83.9277 74C83.8418 74.0273 83.7285 74.0527 83.5879 74.0762C83.4512 74.1035 83.2852 74.1172 83.0898 74.1172C82.8242 74.1172 82.5801 74.0645 82.3574 73.959C82.1348 73.8535 81.957 73.6777 81.8242 73.4316C81.6953 73.1816 81.6309 72.8457 81.6309 72.4238V66.1191ZM88.9082 72.916V69.6523C88.9082 69.4023 88.8574 69.1855 88.7559 69.002C88.6582 68.8145 88.5098 68.6699 88.3105 68.5684C88.1113 68.4668 87.8652 68.416 87.5723 68.416C87.2988 68.416 87.0586 68.4629 86.8516 68.5566C86.6484 68.6504 86.4883 68.7734 86.3711 68.9258C86.2578 69.0781 86.2012 69.2422 86.2012 69.418H85.1172C85.1172 69.1914 85.1758 68.9668 85.293 68.7441C85.4102 68.5215 85.5781 68.3203 85.7969 68.1406C86.0195 67.957 86.2852 67.8125 86.5938 67.707C86.9062 67.5977 87.2539 67.543 87.6367 67.543C88.0977 67.543 88.5039 67.6211 88.8555 67.7773C89.2109 67.9336 89.4883 68.1699 89.6875 68.4863C89.8906 68.7988 89.9922 69.1914 89.9922 69.6641V72.6172C89.9922 72.8281 90.0098 73.0527 90.0449 73.291C90.084 73.5293 90.1406 73.7344 90.2148 73.9062V74H89.084C89.0293 73.875 88.9863 73.709 88.9551 73.502C88.9238 73.291 88.9082 73.0957 88.9082 72.916ZM89.0957 70.1562L89.1074 70.918H88.0117C87.7031 70.918 87.4277 70.9434 87.1855 70.9941C86.9434 71.041 86.7402 71.1133 86.5762 71.2109C86.4121 71.3086 86.2871 71.4316 86.2012 71.5801C86.1152 71.7246 86.0723 71.8945 86.0723 72.0898C86.0723 72.2891 86.1172 72.4707 86.207 72.6348C86.2969 72.7988 86.4316 72.9297 86.6113 73.0273C86.7949 73.1211 87.0195 73.168 87.2852 73.168C87.6172 73.168 87.9102 73.0977 88.1641 72.957C88.418 72.8164 88.6191 72.6445 88.7676 72.4414C88.9199 72.2383 89.002 72.041 89.0137 71.8496L89.4766 72.3711C89.4492 72.5352 89.375 72.7168 89.2539 72.916C89.1328 73.1152 88.9707 73.3066 88.7676 73.4902C88.5684 73.6699 88.3301 73.8203 88.0527 73.9414C87.7793 74.0586 87.4707 74.1172 87.127 74.1172C86.6973 74.1172 86.3203 74.0332 85.9961 73.8652C85.6758 73.6973 85.4258 73.4727 85.2461 73.1914C85.0703 72.9062 84.9824 72.5879 84.9824 72.2363C84.9824 71.8965 85.0488 71.5977 85.1816 71.3398C85.3145 71.0781 85.5059 70.8613 85.7559 70.6895C86.0059 70.5137 86.3066 70.3809 86.6582 70.291C87.0098 70.2012 87.4023 70.1562 87.8359 70.1562H89.0957ZM92.875 65V74H91.7852V65H92.875Z" fill="#4F4F4F"/>
<path d="M57.3187 97.625V100.273H45.0258L44.8617 98.2227L51.975 86.9375H54.6586L51.7523 91.8008L48.2133 97.625H57.3187ZM55.3852 86.9375V104H52.0102V86.9375H55.3852ZM62.0827 96.2305L59.3873 95.5859L60.36 86.9375H69.9459V89.668H63.1373L62.7155 93.4531C62.942 93.3203 63.2858 93.1797 63.7467 93.0312C64.2077 92.875 64.7233 92.7969 65.2936 92.7969C66.1217 92.7969 66.8561 92.9258 67.4967 93.1836C68.1373 93.4414 68.6803 93.8164 69.1256 94.3086C69.5787 94.8008 69.9225 95.4023 70.1569 96.1133C70.3912 96.8242 70.5084 97.6289 70.5084 98.5273C70.5084 99.2852 70.3912 100.008 70.1569 100.695C69.9225 101.375 69.567 101.984 69.0905 102.523C68.6139 103.055 68.0162 103.473 67.2975 103.777C66.5787 104.082 65.7272 104.234 64.7428 104.234C64.0084 104.234 63.2975 104.125 62.61 103.906C61.9303 103.688 61.317 103.363 60.7702 102.934C60.2311 102.504 59.7975 101.984 59.4694 101.375C59.1491 100.758 58.9811 100.055 58.9655 99.2656H62.317C62.3639 99.75 62.4889 100.168 62.692 100.52C62.903 100.863 63.1803 101.129 63.5241 101.316C63.8678 101.504 64.2702 101.598 64.7311 101.598C65.1608 101.598 65.528 101.516 65.8327 101.352C66.1373 101.188 66.3834 100.961 66.5709 100.672C66.7584 100.375 66.8952 100.031 66.9811 99.6406C67.0748 99.2422 67.1217 98.8125 67.1217 98.3516C67.1217 97.8906 67.067 97.4727 66.9577 97.0977C66.8483 96.7227 66.6803 96.3984 66.4537 96.125C66.2272 95.8516 65.9381 95.6406 65.5866 95.4922C65.2428 95.3438 64.8405 95.2695 64.3795 95.2695C63.7545 95.2695 63.2702 95.3672 62.9264 95.5625C62.5905 95.7578 62.3092 95.9805 62.0827 96.2305ZM75.788 101.152L75.7762 103.414C75.7762 104.281 75.5575 105.156 75.12 106.039C74.6903 106.922 74.1434 107.645 73.4794 108.207L71.7216 107.305C71.9169 106.945 72.1083 106.586 72.2958 106.227C72.4833 105.867 72.6395 105.473 72.7645 105.043C72.8895 104.613 72.952 104.125 72.952 103.578V101.152H75.788ZM89.7862 101.363V104H78.1144V101.75L83.6339 95.832C84.1886 95.2148 84.6261 94.6719 84.9464 94.2031C85.2667 93.7266 85.4972 93.3008 85.6378 92.9258C85.7862 92.543 85.8605 92.1797 85.8605 91.8359C85.8605 91.3203 85.7745 90.8789 85.6027 90.5117C85.4308 90.1367 85.1769 89.8477 84.8409 89.6445C84.5128 89.4414 84.1066 89.3398 83.6222 89.3398C83.1066 89.3398 82.6612 89.4648 82.2862 89.7148C81.9191 89.9648 81.6378 90.3125 81.4425 90.7578C81.255 91.2031 81.1612 91.707 81.1612 92.2695H77.7745C77.7745 91.2539 78.0167 90.3242 78.5011 89.4805C78.9855 88.6289 79.6691 87.9531 80.5519 87.4531C81.4347 86.9453 82.4816 86.6914 83.6925 86.6914C84.8878 86.6914 85.8956 86.8867 86.7159 87.2773C87.5441 87.6602 88.1691 88.2148 88.5909 88.9414C89.0206 89.6602 89.2355 90.5195 89.2355 91.5195C89.2355 92.082 89.1456 92.6328 88.9659 93.1719C88.7862 93.7031 88.5284 94.2344 88.1925 94.7656C87.8644 95.2891 87.4659 95.8203 86.9972 96.3594C86.5284 96.8984 86.0089 97.457 85.4386 98.0352L82.4737 101.363H89.7862ZM94.8314 96.2305L92.1361 95.5859L93.1087 86.9375H102.695V89.668H95.8861L95.4642 93.4531C95.6908 93.3203 96.0345 93.1797 96.4955 93.0312C96.9564 92.875 97.472 92.7969 98.0423 92.7969C98.8705 92.7969 99.6048 92.9258 100.245 93.1836C100.886 93.4414 101.429 93.8164 101.874 94.3086C102.327 94.8008 102.671 95.4023 102.906 96.1133C103.14 96.8242 103.257 97.6289 103.257 98.5273C103.257 99.2852 103.14 100.008 102.906 100.695C102.671 101.375 102.316 101.984 101.839 102.523C101.363 103.055 100.765 103.473 100.046 103.777C99.3275 104.082 98.4759 104.234 97.4916 104.234C96.7572 104.234 96.0462 104.125 95.3587 103.906C94.6791 103.688 94.0658 103.363 93.5189 102.934C92.9798 102.504 92.5462 101.984 92.2181 101.375C91.8978 100.758 91.7298 100.055 91.7142 99.2656H95.0658C95.1127 99.75 95.2377 100.168 95.4408 100.52C95.6517 100.863 95.9291 101.129 96.2728 101.316C96.6166 101.504 97.0189 101.598 97.4798 101.598C97.9095 101.598 98.2767 101.516 98.5814 101.352C98.8861 101.188 99.1322 100.961 99.3197 100.672C99.5072 100.375 99.6439 100.031 99.7298 99.6406C99.8236 99.2422 99.8705 98.8125 99.8705 98.3516C99.8705 97.8906 99.8158 97.4727 99.7064 97.0977C99.597 96.7227 99.4291 96.3984 99.2025 96.125C98.9759 95.8516 98.6869 95.6406 98.3353 95.4922C97.9916 95.3438 97.5892 95.2695 97.1283 95.2695C96.5033 95.2695 96.0189 95.3672 95.6752 95.5625C95.3392 95.7578 95.058 95.9805 94.8314 96.2305ZM113.423 86.9023V104H110.048V90.793L105.994 92.082V89.4219L113.06 86.9023H113.423Z" fill="#187586"/>
</svg>
