<svg xmlns="http://www.w3.org/2000/svg" width="20" height="20" viewBox="0 0 20 20" fill="none">
  <path fill-rule="evenodd" clip-rule="evenodd" d="M10 3C5.64 3 1.9 6.12 0.67 10C1.9 13.88 5.64 17 10 17C14.36 17 18.1 13.88 19.33 10C18.1 6.12 14.36 3 10 3ZM10 15C7.24 15 4.92 12.92 4.92 10C4.92 7.08 7.24 5 10 5C12.76 5 15.08 7.08 15.08 10C15.08 12.92 12.76 15 10 15ZM10 6.5C8.62 6.5 7.5 7.62 7.5 9C7.5 10.38 8.62 11.5 10 11.5C11.38 11.5 12.5 10.38 12.5 9C12.5 7.62 11.38 6.5 10 6.5Z" fill="#A1A1A1"/>
</svg>

